# xmcd CD database file
#
# Track frame offsets:
#	150
#	13047
#	25416
#	36150
#	47531
#	62652
#	79750
#	89845
#	102643
#	112469
#
# Disc length: 1663 seconds
#
# Revision: 0
# Processed by: cddbd v1.5.2PL0 Copyright (c) Steve Scherf et al.
# Submitted via: CDex 1.70beta2
#
DISCID=8a067d0a
DTITLE=Charlie Rich - Country Hit Parade (Sampler)
DYEAR=2008
DGENRE=Country
TTITLE0=01-The most beautiful girl
TTITLE1=02-Behind closed doors
TTITLE2=03-There won't be anymore
TTITLE3=04-Rollin' with the flow
TTITLE4=05-On my knees (with Janie Fricke)
TTITLE5=06-My elusive dreams
TTITLE6=07-Lonely weekend
TTITLE7=08-Good times Charlie's got the blues
TTITLE8=09-Mohair Sam
TTITLE9=10-Who will the next fool be
EXTD=YEAR: 2008
EXTT0=
EXTT1=
EXTT2=
EXTT3=
EXTT4=
EXTT5=
EXTT6=
EXTT7=
EXTT8=
EXTT9=
PLAYORDER=
